<svg width="18" height="19" viewBox="0 0 18 19" fill="none" xmlns="http://www.w3.org/2000/svg">
<path d="M1.9 19C1.3775 19 0.930208 18.814 0.558125 18.4419C0.186042 18.0698 0 17.6225 0 17.1V3.8C0 3.2775 0.186042 2.83021 0.558125 2.45813C0.930208 2.08604 1.3775 1.9 1.9 1.9H2.85V0H4.75V1.9H12.35V0H14.25V1.9H15.2C15.7225 1.9 16.1698 2.08604 16.5419 2.45813C16.914 2.83021 17.1 3.2775 17.1 3.8V17.1C17.1 17.6225 16.914 18.0698 16.5419 18.4419C16.1698 18.814 15.7225 19 15.2 19H1.9ZM1.9 17.1H15.2V7.6H1.9V17.1ZM1.9 5.7H15.2V3.8H1.9V5.7ZM1.9 5.7V3.8V5.7Z" fill="black"/>
</svg>
